<svg xmlns="http://www.w3.org/2000/svg" viewBox="0 0 167.74 167.74"><defs><style>.cls-1{fill:#fff;opacity:0.8;}.cls-2{fill:none;stroke:#231f20;stroke-miterlimit:10;stroke-width:0.25px;}.cls-3{fill:#231f20;}</style></defs><g id="Layer_2" data-name="Layer 2"><g id="Apature"><path class="cls-1" d="M83.87,0a83.87,83.87,0,1,0,83.87,83.87A83.87,83.87,0,0,0,83.87,0Zm.22,157.59a73.72,73.72,0,1,1,73.72-73.72A73.73,73.73,0,0,1,84.09,157.59Z"/><circle class="cls-2" cx="84.32" cy="84" r="74.55"/><line class="cls-2" x1="84.2" y1="9.63" x2="84.2" y2="6.77"/><line class="cls-2" x1="103.46" y1="12.14" x2="104.2" y2="9.37"/><line class="cls-2" x1="121.4" y1="19.54" x2="122.84" y2="17.06"/><line class="cls-2" x1="136.82" y1="31.33" x2="138.85" y2="29.31"/><line class="cls-2" x1="148.67" y1="46.72" x2="151.15" y2="45.29"/><line class="cls-2" x1="156.12" y1="64.64" x2="158.89" y2="63.9"/><line class="cls-2" x1="158.69" y1="83.89" x2="161.55" y2="83.89"/><line class="cls-2" x1="156.18" y1="103.14" x2="158.95" y2="103.88"/><line class="cls-2" x1="148.78" y1="121.09" x2="151.26" y2="122.52"/><line class="cls-2" x1="136.98" y1="136.51" x2="139.01" y2="138.53"/><path class="cls-3" d="M153.56,120.89c.36,1.5.59,2.28,1.07,2.59a.66.66,0,0,0,1-.22,1,1,0,0,0,.05-.88l.2,0a1.27,1.27,0,0,1-.09,1.06.86.86,0,0,1-1.28.29c-.55-.35-.77-1.19-1.1-2.48-.08.16-.18.32-.27.48l-.6.95-.17-.11,1.07-1.71Z"/><path class="cls-3" d="M152.25,123c.35,1.5.58,2.28,1.06,2.59a.66.66,0,0,0,1-.22,1,1,0,0,0,.05-.88l.2,0a1.27,1.27,0,0,1-.09,1.06.86.86,0,0,1-1.28.29c-.55-.35-.77-1.19-1.09-2.48l-.28.48-.6,1-.17-.11,1.07-1.71Z"/><path class="cls-3" d="M162.67,81.24l0,.78,2.73.09,0-.59h.15a2.12,2.12,0,0,0,.19.64v.19l-3.09-.11,0,.71h-.2l.06-1.72Z"/><path class="cls-3" d="M162.59,83.71l0,.78,2.73.09,0-.59h.16a1.89,1.89,0,0,0,.18.64v.18l-3.1-.1,0,.71h-.2l.06-1.72Z"/><path class="cls-3" d="M150.19,41l.2,0a1.16,1.16,0,0,0,.08,1,.83.83,0,0,0,1.17.29.76.76,0,0,0,.36-1.11,1,1,0,0,0-.49-.43v-.19l1.41-.64.74,1.34-.18.09-.64-1.15-1.09.48a1,1,0,0,1,.43.43.93.93,0,0,1-.42,1.38,1,1,0,0,1-1.47-.39A1.35,1.35,0,0,1,150.19,41Z"/><path class="cls-3" d="M151.29,43.49a.22.22,0,0,1,.32.07.23.23,0,0,1-.11.31.21.21,0,0,1-.3-.08A.21.21,0,0,1,151.29,43.49Z"/><path class="cls-3" d="M153,43.77c1.21-.66,1.91-.39,2.22.17a.89.89,0,0,1,.06.76l-.21-.05a.68.68,0,0,0,0-.62c-.25-.46-.84-.66-1.93-.06-.7.39-1.06.89-.78,1.4a.75.75,0,0,0,1.05.19c.42-.23.63-.59.39-1a1.09,1.09,0,0,0-.87-.46l.21-.12a1.17,1.17,0,0,1,.84.51.89.89,0,0,1-.46,1.3,1,1,0,0,1-1.33-.3C151.8,44.89,152.08,44.25,153,43.77Z"/><path class="cls-3" d="M120.41,14.48c1.5-.36,2.28-.6,2.58-1.09a.65.65,0,0,0-.22-1,1,1,0,0,0-.88,0l-.06-.2a1.23,1.23,0,0,1,1.06.08.85.85,0,0,1,.3,1.27c-.34.56-1.18.78-2.47,1.12.16.09.33.18.48.28l1,.59-.11.17-1.72-1.06Z"/><path class="cls-3" d="M122.64,15.84a.22.22,0,0,1,.31-.09.21.21,0,0,1,.06.31.22.22,0,1,1-.37-.22Z"/><path class="cls-3" d="M123.84,15.78a1.11,1.11,0,0,1,1-.45h0a.94.94,0,0,1,0-.89.82.82,0,0,1,1.16-.24.83.83,0,0,1,.3,1.21,1.16,1.16,0,0,1-.84.46v0a1,1,0,0,1,0,1,.9.9,0,0,1-1.3.2A.94.94,0,0,1,123.84,15.78Zm1.52,1c.26-.43-.06-.84-.39-1.28a1,1,0,0,0-.94.4.76.76,0,0,0,.32,1.05A.7.7,0,0,0,125.36,16.77Zm.8-1.48a.64.64,0,0,0-.21-.93.59.59,0,0,0-.86.19c-.25.39,0,.79.3,1.16A1,1,0,0,0,126.16,15.29Z"/><path class="cls-3" d="M80.53,5.72l.77,0L81.36,3h-.59V2.84a2,2,0,0,0,.63-.19h.19l-.07,3.1h.72V6l-1.72,0Z"/><path class="cls-3" d="M82.91,5.81a.22.22,0,0,1,.22-.23.22.22,0,0,1,.22.24.22.22,0,1,1-.44,0Z"/><path class="cls-3" d="M85.34,3.65c0-.15,0-.42,0-.57h0c-.09.14-.19.26-.28.4l-1,1.35,2,0v.2L83.8,5V4.88l1.58-2.14h.2L85.51,6h-.22Z"/><path class="cls-3" d="M103.58,8.33c1.38-.68,2.09-1.08,2.28-1.62a.66.66,0,0,0-.44-.93,1,1,0,0,0-.86.15l-.1-.18a1.25,1.25,0,0,1,1.05-.15.86.86,0,0,1,.57,1.18c-.21.62-1,1-2.17,1.63l.53.16,1.06.37-.06.19-1.91-.66Z"/><path class="cls-3" d="M141.84,27.78l.45-.36h0l-.48.07-1.67.17,1.29,1.46-.15.13-1.47-1.67.1-.09,2.65-.28.14.15-2.48,2.17-.15-.16Z"/><path class="cls-3" d="M160.35,62.49a1.12,1.12,0,0,1,1.05.46h0a.93.93,0,0,1,.64-.62.88.88,0,0,1,.3,1.73,1.14,1.14,0,0,1-.91-.29h0a1,1,0,0,1-.71.73.91.91,0,0,1-1-.81A1,1,0,0,1,160.35,62.49Zm.33,1.79c.5-.1.57-.62.66-1.16a1,1,0,0,0-.93-.41.77.77,0,0,0-.55.95A.7.7,0,0,0,160.68,64.28Zm1.63-.43a.65.65,0,0,0,.53-.8.59.59,0,0,0-.73-.49c-.46.09-.55.56-.63,1A1,1,0,0,0,162.31,63.85Z"/><path class="cls-3" d="M160.77,100.82l-.22.74,2.62.78.17-.57.15,0a1.75,1.75,0,0,0,0,.66l0,.18-3-.88-.21.69-.19-.06.49-1.65Z"/><path class="cls-3" d="M161.36,103.4c1.32.39,1.62,1.08,1.44,1.69a.91.91,0,0,1-.5.58l-.11-.18a.71.71,0,0,0,.42-.46c.15-.5-.13-1.06-1.32-1.41-.77-.23-1.38-.13-1.54.43a.75.75,0,0,0,.61.88c.45.13.85,0,1-.45a1.07,1.07,0,0,0-.27-.94l.23.06a1.12,1.12,0,0,1,.22,1,.88.88,0,0,1-1.24.59,1,1,0,0,1-.73-1.16C159.75,103.36,160.4,103.12,161.36,103.4Z"/><path class="cls-3" d="M141.88,137.41v.21a1.14,1.14,0,0,0-1,.31.72.72,0,0,0-.07,1.06c.31.33.76.33,1.36-.22l.14.14c-.56.52-.54.94-.27,1.22a.6.6,0,0,0,.91,0,1,1,0,0,0,.31-.77l.2,0a1.23,1.23,0,0,1-.38.9.8.8,0,0,1-1.2,0,.83.83,0,0,1-.09-1l0,0a.88.88,0,0,1-1.13-.12.94.94,0,0,1,.1-1.37A1.36,1.36,0,0,1,141.88,137.41Z"/><path class="cls-3" d="M139.84,139c0,1.54,0,2.35.37,2.78a.66.66,0,0,0,1,0,1,1,0,0,0,.27-.83h.21a1.26,1.26,0,0,1-.36,1,.86.86,0,0,1-1.31,0c-.45-.48-.44-1.35-.42-2.68-.13.13-.26.27-.39.39l-.83.76-.14-.14,1.48-1.38Z"/></g></g></svg>