<svg xmlns="http://www.w3.org/2000/svg" viewBox="0 0 219.52 219.52"><defs><style>.cls-1{fill:#e6e7e8;opacity:0.82;}.cls-2{fill:#231f20;}.cls-3{fill:none;stroke:#231f20;stroke-miterlimit:10;stroke-width:0.25px;}</style></defs><g id="Layer_2" data-name="Layer 2"><g id="Focal"><path class="cls-1" d="M109.76,0A109.76,109.76,0,1,0,219.52,109.76,109.89,109.89,0,0,0,109.76,0Zm0,199.52a89.76,89.76,0,1,1,89.76-89.76A89.76,89.76,0,0,1,109.76,199.52Z"/><path class="cls-2" d="M107.53,9.13c1.08-1.1,1.62-1.71,1.62-2.28a.66.66,0,0,0-.72-.73,1,1,0,0,0-.76.43l-.15-.14a1.21,1.21,0,0,1,.94-.49.86.86,0,0,1,.93.92c0,.66-.6,1.29-1.52,2.26a5.25,5.25,0,0,1,.56,0h1.12v.21h-2Z"/><path class="cls-2" d="M110,7.62c0-1.1.35-1.7,1-1.7s1,.6,1,1.7-.36,1.72-1,1.72S110,8.71,110,7.62Zm1.74,0c0-1-.3-1.5-.76-1.5s-.75.49-.75,1.5.3,1.52.75,1.52S111.78,8.62,111.78,7.62Z"/><path class="cls-2" d="M138,12.93l.17-.11a1.2,1.2,0,0,0,.74.66.85.85,0,0,0,1.05-.6.78.78,0,0,0-.51-1.06,1,1,0,0,0-.65,0l-.12-.14.57-1.44,1.45.46-.06.2-1.25-.4-.46,1.1a1.06,1.06,0,0,1,.61,0,1,1,0,0,1,.65,1.3,1.05,1.05,0,0,1-1.34.73A1.36,1.36,0,0,1,138,12.93Z"/><path class="cls-2" d="M140.85,12.5c.33-1.05.85-1.52,1.45-1.33s.76.88.43,1.92-.86,1.53-1.46,1.34S140.52,13.54,140.85,12.5Zm1.66.52c.3-1,.17-1.52-.27-1.66s-.86.25-1.17,1.21-.17,1.54.26,1.68S142.2,14,142.51,13Z"/><path class="cls-2" d="M167.51,26.51a1.13,1.13,0,0,1,1.08-.36v0a.92.92,0,0,1,.07-.89.81.81,0,0,1,1.17-.14.83.83,0,0,1,.21,1.22,1.17,1.17,0,0,1-.87.4v0a1,1,0,0,1,0,1,.91.91,0,0,1-1.32.11A1,1,0,0,1,167.51,26.51Zm1.45,1.1c.29-.4,0-.84-.3-1.3a1,1,0,0,0-1,.33.76.76,0,0,0,.24,1.07A.7.7,0,0,0,169,27.61Zm.91-1.42a.64.64,0,0,0-.14-.94.61.61,0,0,0-.88.13c-.27.37,0,.79.22,1.18A1,1,0,0,0,169.87,26.19Z"/><path class="cls-2" d="M170,27.33c.65-.88,1.29-1.16,1.8-.79s.44,1.07-.2,1.95-1.3,1.18-1.81.82S169.38,28.22,170,27.33Zm1.41,1c.59-.82.65-1.39.28-1.66s-.91,0-1.5.77-.65,1.41-.28,1.68S170.84,29.17,171.43,28.36Z"/><path class="cls-2" d="M162,20.26l-1.5-.88.11-.18,1.74,1-.07.12a4.89,4.89,0,0,0-2.5,2.2l-.21-.13A5.07,5.07,0,0,1,162,20.26Z"/><path class="cls-2" d="M161.9,21.88c.56-.94,1.17-1.28,1.71-1s.54,1,0,2-1.18,1.31-1.73,1S161.34,22.83,161.9,21.88Zm1.5.89c.51-.87.51-1.45.11-1.68s-.9,0-1.41.91-.52,1.46-.12,1.69S162.89,23.63,163.4,22.77Z"/><path class="cls-2" d="M123.7,9.81l.16-.13a1.17,1.17,0,0,0,.83.56.72.72,0,0,0,.88-.6c.07-.44-.2-.8-1-.93l0-.2c.75.12,1.07-.15,1.13-.54a.61.61,0,0,0-.56-.72,1.09,1.09,0,0,0-.8.24l-.11-.18a1.27,1.27,0,0,1,1-.25A.81.81,0,0,1,126,8a.84.84,0,0,1-.75.7v0a.88.88,0,0,1,.6,1,.93.93,0,0,1-1.14.76A1.38,1.38,0,0,1,123.7,9.81Z"/><path class="cls-2" d="M126.12,10.22l.16-.13a1.16,1.16,0,0,0,.82.54.83.83,0,0,0,1-.74.76.76,0,0,0-.65-1,1,1,0,0,0-.64.12l-.14-.13.36-1.5,1.5.24,0,.21-1.3-.21-.29,1.15a1.07,1.07,0,0,1,.6-.07.93.93,0,0,1,.83,1.18,1,1,0,0,1-1.21.92A1.37,1.37,0,0,1,126.12,10.22Z"/><path class="cls-2" d="M182.85,40.45l.52.58,2-1.84-.39-.44.11-.11a1.86,1.86,0,0,0,.58.33l.13.14-2.29,2.09.48.53-.15.13-1.16-1.27Z"/><path class="cls-2" d="M185.47,41.16c.81-.74,1.5-.88,1.92-.41s.22,1.13-.59,1.87-1.52.9-1.94.43S184.66,41.9,185.47,41.16Zm1.17,1.29c.74-.68.91-1.23.6-1.57s-.87-.22-1.61.45-.93,1.25-.62,1.59S185.9,43.12,186.64,42.45Z"/><path class="cls-2" d="M187.13,43c.82-.74,1.5-.88,1.92-.42s.22,1.14-.59,1.88-1.51.89-1.94.43S186.32,43.73,187.13,43Zm1.18,1.29c.74-.68.91-1.24.6-1.57s-.88-.23-1.62.45-.93,1.25-.62,1.58S187.56,45,188.31,44.28Z"/><path class="cls-2" d="M202.09,69.6l.29.71,2.53-1-.23-.54.15-.06a1.85,1.85,0,0,0,.43.5l.07.18-2.86,1.17.27.67-.19.07-.65-1.59Z"/><path class="cls-2" d="M203.1,71.54l.2.06a1.2,1.2,0,0,0,0,1,.72.72,0,0,0,1,.44c.42-.18.59-.6.27-1.36l.19-.07c.29.7.69.82,1,.67a.6.6,0,0,0,.32-.85,1.1,1.1,0,0,0-.62-.56l.09-.18a1.22,1.22,0,0,1,.71.67.81.81,0,0,1-.39,1.14.84.84,0,0,1-1-.27h0a.89.89,0,0,1-.51,1,.93.93,0,0,1-1.25-.57A1.4,1.4,0,0,1,203.1,71.54Z"/><path class="cls-2" d="M204,73.82l.2.06a1.15,1.15,0,0,0,0,1,.84.84,0,0,0,1.13.42.77.77,0,0,0,.48-1.07,1,1,0,0,0-.44-.48l0-.19,1.47-.47.57,1.4-.18.08-.5-1.22-1.14.36a1.1,1.1,0,0,1,.38.48.93.93,0,0,1-.58,1.32A1.05,1.05,0,0,1,204,75,1.35,1.35,0,0,1,204,73.82Z"/><path class="cls-2" d="M206.51,137.57c.73,1.36,1.15,2.06,1.7,2.23a.66.66,0,0,0,.91-.46,1,1,0,0,0-.18-.87l.18-.1a1.25,1.25,0,0,1,.18,1,.85.85,0,0,1-1.15.61c-.63-.2-1.05-.95-1.71-2.12,0,.18-.09.37-.14.54l-.33,1.07-.2-.06.6-1.93Z"/><path class="cls-2" d="M207.21,140.42c1,.33,1.52.85,1.33,1.45s-.87.76-1.91.43-1.54-.85-1.36-1.45S206.16,140.09,207.21,140.42Zm-.52,1.66c1,.3,1.53.16,1.66-.27s-.25-.87-1.21-1.17-1.54-.17-1.68.27S205.73,141.78,206.69,142.08Z"/><path class="cls-2" d="M206.48,142.78c1,.33,1.51.84,1.33,1.45s-.87.76-1.92.43-1.54-.85-1.35-1.45S205.43,142.45,206.48,142.78Zm-.52,1.66c1,.3,1.52.16,1.66-.27s-.25-.87-1.21-1.17-1.55-.17-1.68.27S205,144.14,206,144.44Z"/><path class="cls-2" d="M135.3,207.4l-.1.18a1.17,1.17,0,0,0-1-.2.72.72,0,0,0-.58.89c.1.44.49.67,1.29.48l0,.19c-.74.18-.93.55-.84.94a.61.61,0,0,0,.79.44,1.06,1.06,0,0,0,.65-.52l.17.12a1.28,1.28,0,0,1-.78.6.82.82,0,0,1-1.06-.57.84.84,0,0,1,.43-.94v0a.87.87,0,0,1-.92-.66.92.92,0,0,1,.76-1.14A1.37,1.37,0,0,1,135.3,207.4Z"/><path class="cls-2" d="M133.08,209.22c.26,1.06,0,1.73-.56,1.88s-1.1-.36-1.35-1.43,0-1.76.56-1.9S132.83,208.15,133.08,209.22Zm-1.69.4c.23,1,.64,1.39,1.08,1.28s.62-.65.39-1.63-.64-1.42-1.09-1.31S131.16,208.64,131.39,209.62Z"/><path class="cls-2" d="M130.68,209.78c.25,1.07,0,1.74-.57,1.89s-1.1-.37-1.35-1.43,0-1.76.56-1.9S130.43,208.72,130.68,209.78Zm-1.69.41c.23,1,.63,1.39,1.08,1.28s.62-.65.38-1.63-.64-1.42-1.08-1.31S128.76,209.21,129,210.19Z"/><path class="cls-2" d="M36.25,181.75l-.42.38h0l.48-.09L38,181.8l-1.35-1.4.14-.14,1.54,1.6-.09.1-2.64.4-.14-.14,2.38-2.29.15.16Z"/><path class="cls-2" d="M36,180.43c-.79.76-1.47.93-1.91.47s-.25-1.13.54-1.89,1.49-.93,1.92-.48S36.79,179.67,36,180.43Zm-1.21-1.25c-.72.7-.88,1.26-.56,1.59s.88.19,1.61-.5.89-1.27.57-1.6S35.52,178.48,34.79,179.18Z"/><path class="cls-2" d="M34.28,178.65c-.79.76-1.47.93-1.91.47s-.24-1.13.55-1.89,1.48-.93,1.92-.48S35.07,177.89,34.28,178.65Zm-1.2-1.25c-.73.7-.88,1.26-.56,1.59s.88.2,1.6-.5.89-1.27.58-1.6S33.8,176.7,33.08,177.4Z"/><path class="cls-2" d="M11.91,83.18,11.79,83a1.13,1.13,0,0,0,.63-.76.83.83,0,0,0-.64-1,.76.76,0,0,0-1,.55.94.94,0,0,0,.05.64l-.14.13L9.21,82l.4-1.46.2,0-.35,1.27,1.12.42a1,1,0,0,1,0-.61.94.94,0,0,1,1.27-.7,1.05,1.05,0,0,1,.78,1.31A1.37,1.37,0,0,1,11.91,83.18Z"/><path class="cls-2" d="M11.37,80.35c-1.06-.29-1.54-.8-1.38-1.41s.85-.78,1.91-.49,1.56.8,1.39,1.41S12.43,80.64,11.37,80.35Zm.46-1.68c-1-.27-1.52-.11-1.64.33s.27.86,1.24,1.12,1.55.12,1.67-.32S12.8,78.94,11.83,78.67Z"/><path class="cls-2" d="M12,78c-1.06-.3-1.55-.8-1.38-1.41s.85-.79,1.9-.49,1.57.8,1.4,1.4S13.09,78.26,12,78Zm.46-1.68c-1-.27-1.53-.11-1.65.33s.28.85,1.25,1.12,1.55.12,1.67-.32S13.46,76.56,12.49,76.29Z"/><line class="cls-3" x1="209.05" y1="99.32" x2="202.37" y2="100.03"/><line class="cls-3" x1="130.52" y1="12.1" x2="129.12" y2="18.68"/><line class="cls-3" x1="150.37" y1="18.55" x2="147.64" y2="24.69"/><line class="cls-3" x1="168.44" y1="28.99" x2="164.49" y2="34.42"/><line class="cls-3" x1="183.96" y1="42.95" x2="178.96" y2="47.45"/><line class="cls-3" x1="196.22" y1="59.84" x2="190.4" y2="63.2"/><line class="cls-3" x1="204.71" y1="78.91" x2="198.32" y2="80.98"/><line class="cls-3" x1="209.05" y1="120.2" x2="202.37" y2="119.49"/><line class="cls-3" x1="204.71" y1="140.61" x2="198.32" y2="138.54"/><line class="cls-3" x1="196.22" y1="159.68" x2="190.4" y2="156.32"/><line class="cls-3" x1="183.96" y1="176.57" x2="178.96" y2="172.07"/><line class="cls-3" x1="168.44" y1="190.53" x2="164.49" y2="185.1"/><line class="cls-3" x1="150.37" y1="200.97" x2="147.64" y2="194.83"/><line class="cls-3" x1="130.52" y1="207.42" x2="129.12" y2="200.85"/><line class="cls-3" x1="109.76" y1="209.6" x2="109.76" y2="202.88"/><line class="cls-3" x1="89" y1="207.42" x2="90.4" y2="200.85"/><line class="cls-3" x1="69.15" y1="200.97" x2="71.88" y2="194.83"/><line class="cls-3" x1="51.08" y1="190.53" x2="55.03" y2="185.1"/><line class="cls-3" x1="35.56" y1="176.57" x2="40.56" y2="172.07"/><line class="cls-3" x1="23.3" y1="159.68" x2="29.12" y2="156.32"/><line class="cls-3" x1="14.81" y1="140.61" x2="21.2" y2="138.54"/><line class="cls-3" x1="10.47" y1="120.2" x2="17.15" y2="119.49"/><line class="cls-3" x1="14.81" y1="78.91" x2="21.2" y2="80.98"/><line class="cls-3" x1="10.47" y1="99.32" x2="17.15" y2="100.03"/><line class="cls-3" x1="109.76" y1="9.92" x2="109.76" y2="16.64"/><line class="cls-3" x1="16.57" y1="84.79" x2="19.81" y2="85.66"/><line class="cls-3" x1="15.39" y1="89.7" x2="18.67" y2="90.4"/><line class="cls-3" x1="14.47" y1="94.67" x2="17.79" y2="95.19"/><line class="cls-3" x1="13.41" y1="104.71" x2="16.77" y2="104.89"/><line class="cls-3" x1="13.28" y1="109.76" x2="16.64" y2="109.76"/><line class="cls-3" x1="13.41" y1="114.81" x2="16.77" y2="114.63"/><line class="cls-3" x1="14.47" y1="124.85" x2="17.79" y2="124.33"/><line class="cls-3" x1="15.39" y1="129.82" x2="18.67" y2="129.12"/><line class="cls-3" x1="16.57" y1="134.73" x2="19.81" y2="133.86"/><line class="cls-3" x1="19.69" y1="144.34" x2="22.82" y2="143.13"/><line class="cls-3" x1="21.62" y1="149" x2="24.69" y2="147.64"/><line class="cls-3" x1="23.8" y1="153.56" x2="26.79" y2="152.04"/><line class="cls-3" x1="28.85" y1="162.31" x2="31.66" y2="160.48"/><line class="cls-3" x1="31.71" y1="166.47" x2="34.42" y2="164.49"/><line class="cls-3" x1="34.78" y1="170.48" x2="37.39" y2="168.36"/><line class="cls-3" x1="41.54" y1="177.98" x2="43.91" y2="175.61"/><line class="cls-3" x1="45.2" y1="181.46" x2="47.45" y2="178.96"/><line class="cls-3" x1="49.04" y1="184.74" x2="51.16" y2="182.13"/><line class="cls-3" x1="57.21" y1="190.68" x2="59.04" y2="187.86"/><line class="cls-3" x1="61.52" y1="193.31" x2="63.2" y2="190.4"/><line class="cls-3" x1="65.96" y1="195.72" x2="67.48" y2="192.73"/><line class="cls-3" x1="75.18" y1="199.83" x2="76.39" y2="196.7"/><line class="cls-3" x1="79.95" y1="201.52" x2="80.98" y2="198.32"/><line class="cls-3" x1="84.79" y1="202.95" x2="85.66" y2="199.71"/><line class="cls-3" x1="94.67" y1="205.05" x2="95.19" y2="201.73"/><line class="cls-3" x1="99.68" y1="205.71" x2="100.03" y2="202.37"/><line class="cls-3" x1="104.71" y1="206.11" x2="104.89" y2="202.75"/><line class="cls-3" x1="114.81" y1="206.11" x2="114.63" y2="202.75"/><line class="cls-3" x1="119.84" y1="205.71" x2="119.49" y2="202.37"/><line class="cls-3" x1="124.85" y1="205.05" x2="124.33" y2="201.73"/><line class="cls-3" x1="134.73" y1="202.95" x2="133.86" y2="199.71"/><line class="cls-3" x1="139.57" y1="201.52" x2="138.54" y2="198.32"/><line class="cls-3" x1="144.34" y1="199.83" x2="143.13" y2="196.7"/><line class="cls-3" x1="153.56" y1="195.72" x2="152.04" y2="192.73"/><line class="cls-3" x1="158" y1="193.31" x2="156.32" y2="190.4"/><line class="cls-3" x1="162.31" y1="190.68" x2="160.48" y2="187.86"/><line class="cls-3" x1="170.48" y1="184.74" x2="168.36" y2="182.13"/><line class="cls-3" x1="174.32" y1="181.46" x2="172.07" y2="178.96"/><line class="cls-3" x1="177.98" y1="177.98" x2="175.61" y2="175.61"/><line class="cls-3" x1="184.74" y1="170.48" x2="182.13" y2="168.36"/><line class="cls-3" x1="187.81" y1="166.47" x2="185.1" y2="164.49"/><line class="cls-3" x1="190.67" y1="162.31" x2="187.86" y2="160.48"/><line class="cls-3" x1="195.72" y1="153.56" x2="192.73" y2="152.04"/><line class="cls-3" x1="197.9" y1="149" x2="194.83" y2="147.64"/><line class="cls-3" x1="199.83" y1="144.34" x2="196.69" y2="143.13"/><line class="cls-3" x1="202.95" y1="134.73" x2="199.71" y2="133.86"/><line class="cls-3" x1="204.13" y1="129.82" x2="200.85" y2="129.12"/><line class="cls-3" x1="205.05" y1="124.85" x2="201.73" y2="124.33"/><line class="cls-3" x1="206.11" y1="114.81" x2="202.75" y2="114.63"/><line class="cls-3" x1="206.24" y1="109.76" x2="202.88" y2="109.76"/><line class="cls-3" x1="206.11" y1="104.71" x2="202.75" y2="104.89"/><line class="cls-3" x1="205.05" y1="94.67" x2="201.73" y2="95.19"/><line class="cls-3" x1="204.13" y1="89.7" x2="200.85" y2="90.4"/><line class="cls-3" x1="202.95" y1="84.79" x2="199.71" y2="85.66"/><line class="cls-3" x1="199.83" y1="75.18" x2="196.69" y2="76.39"/><line class="cls-3" x1="197.9" y1="70.52" x2="194.83" y2="71.88"/><line class="cls-3" x1="195.72" y1="65.96" x2="192.73" y2="67.48"/><line class="cls-3" x1="190.67" y1="57.21" x2="187.86" y2="59.04"/><line class="cls-3" x1="187.81" y1="53.05" x2="185.1" y2="55.03"/><line class="cls-3" x1="184.74" y1="49.04" x2="182.13" y2="51.16"/><line class="cls-3" x1="177.98" y1="41.54" x2="175.61" y2="43.91"/><line class="cls-3" x1="174.32" y1="38.06" x2="172.07" y2="40.56"/><line class="cls-3" x1="170.48" y1="34.78" x2="168.36" y2="37.39"/><line class="cls-3" x1="162.31" y1="28.85" x2="160.48" y2="31.66"/><line class="cls-3" x1="158" y1="26.21" x2="156.32" y2="29.12"/><line class="cls-3" x1="153.56" y1="23.8" x2="152.04" y2="26.79"/><line class="cls-3" x1="144.34" y1="19.69" x2="143.13" y2="22.83"/><line class="cls-3" x1="139.57" y1="18" x2="138.54" y2="21.2"/><line class="cls-3" x1="134.73" y1="16.57" x2="133.86" y2="19.81"/><line class="cls-3" x1="124.85" y1="14.47" x2="124.33" y2="17.79"/><line class="cls-3" x1="119.84" y1="13.81" x2="119.49" y2="17.15"/><line class="cls-3" x1="104.71" y1="13.41" x2="104.89" y2="16.77"/><line class="cls-3" x1="114.81" y1="13.41" x2="114.63" y2="16.77"/></g></g></svg>