<svg xmlns="http://www.w3.org/2000/svg" viewBox="0 0 264.23 264.23"><defs><style>.cls-1{fill:#f1f2f2;opacity:0;}.cls-2{fill:#231f20;}.cls-3{fill:none;stroke:#231f20;stroke-miterlimit:10;stroke-width:0.25px;}</style></defs><g id="Layer_2" data-name="Layer 2"><g id="ISO"><path class="cls-1" d="M132.12,0A132.12,132.12,0,1,0,264.23,132.12,132.12,132.12,0,0,0,132.12,0Zm0,247.86A115.75,115.75,0,1,1,247.86,132.12,115.74,115.74,0,0,1,132.12,247.86Z"/><path class="cls-2" d="M128.38,13.65l-.16-.13a1.16,1.16,0,0,0,.39-.91.84.84,0,0,0-.91-.8.77.77,0,0,0-.83.82,1,1,0,0,0,.23.61l-.09.16-1.55-.08,0-1.52h.2l0,1.32,1.19.08a1.08,1.08,0,0,1-.18-.59.94.94,0,0,1,1-1,1.05,1.05,0,0,1,1.13,1A1.37,1.37,0,0,1,128.38,13.65Z"/><path class="cls-2" d="M127.05,11.09c-1.09,0-1.71-.32-1.72-.95s.58-1,1.68-1,1.73.32,1.74,1S128.15,11.07,127.05,11.09Zm0-1.74c-1,0-1.49.33-1.48.79s.51.74,1.52.72,1.51-.33,1.5-.79S128,9.33,127,9.35Z"/><path class="cls-2" d="M148.26,14.4l.11-.77-2.7-.41-.09.58-.15,0a1.92,1.92,0,0,0-.11-.66l0-.18,3.06.47.11-.71.2,0-.27,1.7Z"/><path class="cls-2" d="M147.16,11.92c-1.08-.17-1.62-.61-1.53-1.24s.75-.88,1.83-.71,1.65.61,1.55,1.23S148.25,12.08,147.16,11.92Zm.27-1.72c-1-.15-1.53.06-1.6.51s.37.82,1.37,1,1.55-.06,1.62-.52S148.42,10.35,147.43,10.2Z"/><path class="cls-2" d="M147.54,9.47c-1.09-.16-1.63-.61-1.53-1.23s.75-.88,1.83-.71,1.65.61,1.55,1.23S148.62,9.64,147.54,9.47Zm.26-1.71c-1-.16-1.53.06-1.6.51s.38.82,1.37,1,1.55-.06,1.62-.51S148.8,7.91,147.8,7.76Z"/><path class="cls-2" d="M168.42,19.23c-.69-1.38-1.1-2.09-1.64-2.27a.66.66,0,0,0-.92.44,1,1,0,0,0,.16.87l-.18.1a1.26,1.26,0,0,1-.17-1.05.87.87,0,0,1,1.18-.58c.62.21,1,1,1.65,2.16a4.77,4.77,0,0,1,.15-.54L169,17.3l.2.06-.65,1.92Z"/><path class="cls-2" d="M167.79,16.37c-1-.35-1.49-.89-1.29-1.48s.89-.74,1.93-.39,1.51.89,1.31,1.49S168.83,16.72,167.79,16.37Zm.56-1.65c-.95-.32-1.52-.2-1.66.23s.23.87,1.18,1.2,1.54.21,1.68-.22S169.3,15.05,168.35,14.72Z"/><path class="cls-2" d="M168.59,14c-1-.35-1.5-.88-1.29-1.48s.88-.74,1.92-.39,1.52.89,1.31,1.49S169.63,14.38,168.59,14Zm.56-1.65c-1-.32-1.52-.2-1.67.23s.23.88,1.18,1.2,1.54.21,1.69-.22S170.1,12.71,169.15,12.38Z"/><path class="cls-2" d="M186.26,24.9c-.14-.07-.36-.21-.49-.29v0l.23.43.73,1.5.94-1.7.17.09-1.07,1.95-.12-.06-1.17-2.39.09-.18,2.9,1.58-.11.2Z"/><path class="cls-2" d="M187.43,24.27c-1-.53-1.31-1.13-1-1.69s1-.57,2,0,1.34,1.14,1,1.69S188.4,24.79,187.43,24.27Zm.84-1.53c-.88-.48-1.46-.46-1.68-.06s.07.9,1,1.38,1.47.47,1.69.07S189.15,23.23,188.27,22.74Z"/><path class="cls-2" d="M188.62,22.1c-1-.53-1.32-1.13-1-1.68s1-.58,2-.05,1.34,1.14,1,1.69S189.58,22.63,188.62,22.1Zm.84-1.53c-.88-.48-1.46-.46-1.68-.06s.07.9.95,1.39,1.48.47,1.7.07S190.34,21.06,189.46,20.57Z"/><path class="cls-2" d="M204.17,37.91a1.12,1.12,0,0,1-.32-1.09v0a.93.93,0,0,1-.89-.1.82.82,0,0,1-.09-1.18.83.83,0,0,1,1.23-.16,1.22,1.22,0,0,1,.36.9h0a1,1,0,0,1,1,.07.91.91,0,0,1,.05,1.32A.94.94,0,0,1,204.17,37.91ZM204,35.54a.65.65,0,0,0-1,.1.61.61,0,0,0,.08.88c.37.29.79.07,1.19-.16A1,1,0,0,0,204,35.54Zm1.38,1c-.4-.32-.85,0-1.33.23a1,1,0,0,0,.29,1,.76.76,0,0,0,1.08-.19A.7.7,0,0,0,205.34,36.52Z"/><path class="cls-2" d="M205.1,35.44c-.85-.68-1.1-1.34-.71-1.83s1.09-.39,2,.29,1.12,1.36.72,1.85S206,36.13,205.1,35.44Zm1.09-1.36c-.78-.62-1.36-.7-1.64-.35s-.09.9.7,1.53,1.37.72,1.66.36S207,34.71,206.19,34.08Z"/><path class="cls-2" d="M206.65,33.51c-.86-.68-1.1-1.34-.71-1.83s1.09-.39,1.94.3,1.12,1.35.73,1.84S207.51,34.2,206.65,33.51Zm1.09-1.35c-.79-.63-1.36-.71-1.65-.36s-.08.9.7,1.53,1.38.72,1.66.37S208.52,32.78,207.74,32.16Z"/><path class="cls-2" d="M220.48,52.69l.58-.51-1.79-2.06-.45.39-.1-.12a2,2,0,0,0,.34-.57l.14-.13,2,2.34.54-.47.14.15-1.3,1.13Z"/><path class="cls-2" d="M221.37,50.2c-.91-1-.79-1.78-.31-2.2a.91.91,0,0,1,.74-.22V48a.71.71,0,0,0-.6.16c-.4.35-.46,1,.35,1.9.53.61,1.1.85,1.54.47a.75.75,0,0,0-.05-1.07.7.7,0,0,0-1.08-.16,1.08,1.08,0,0,0-.27.94l-.16-.17a1.13,1.13,0,0,1,.33-.93.88.88,0,0,1,1.36.17,1,1,0,0,1,0,1.37C222.71,51.1,222,51,221.37,50.2Z"/><path class="cls-2" d="M223.11,48.47c-.72-.83-.85-1.52-.37-1.93s1.14-.19,1.86.64.86,1.53.38,1.94S223.83,49.3,223.11,48.47Zm1.31-1.14c-.66-.76-1.21-.94-1.55-.64s-.24.87.42,1.63,1.22,1,1.56.65S225.08,48.09,224.42,47.33Z"/><path class="cls-2" d="M225,46.85c-.72-.83-.85-1.52-.38-1.93s1.15-.19,1.86.63.86,1.54.39,2S225.69,47.67,225,46.85Zm1.31-1.14c-.66-.76-1.21-.94-1.55-.64s-.25.87.41,1.62,1.22,1,1.57.66S227,46.47,226.29,45.71Z"/><path class="cls-2" d="M232.57,68.46l0-.2a1.14,1.14,0,0,0,1-.13.71.71,0,0,0,.27-1c-.24-.39-.68-.48-1.38,0l-.1-.17c.64-.41.7-.82.49-1.15a.6.6,0,0,0-.89-.17,1.06,1.06,0,0,0-.45.7l-.2-.06a1.26,1.26,0,0,1,.55-.81.8.8,0,0,1,1.18.2.83.83,0,0,1-.1,1v0a.87.87,0,0,1,1.09.33.92.92,0,0,1-.36,1.32A1.34,1.34,0,0,1,232.57,68.46Z"/><path class="cls-2" d="M234.85,67.34c.34-1.51.48-2.31.17-2.8a.66.66,0,0,0-1-.24,1,1,0,0,0-.43.77l-.2,0a1.24,1.24,0,0,1,.54-.91.86.86,0,0,1,1.28.29c.34.56.17,1.41-.1,2.72l.47-.32.95-.59.11.17-1.72,1.07Z"/><path class="cls-2" d="M236.18,64.73c-.58-.93-.6-1.63-.06-2s1.15,0,1.73.92.61,1.65.08,2S236.76,65.66,236.18,64.73Zm1.48-.92c-.54-.86-1-1.12-1.44-.88s-.38.82.16,1.67,1.05,1.14,1.44.9S238.19,64.66,237.66,63.81Z"/><path class="cls-2" d="M238.28,63.42c-.58-.93-.6-1.63-.07-2s1.16,0,1.74.93.61,1.64.07,2S238.86,64.35,238.28,63.42Zm1.47-.92c-.53-.86-1-1.12-1.43-.88s-.38.82.15,1.68,1.06,1.13,1.45.89S240.28,63.35,239.75,62.5Z"/><path class="cls-2" d="M241,85.67c-.52-1.28-.16-2,.43-2.18a.87.87,0,0,1,.76,0l-.07.2a.72.72,0,0,0-.62,0c-.49.2-.75.76-.29,1.91.3.75.76,1.17,1.3,1a.77.77,0,0,0,.31-1c-.18-.44-.51-.69-1-.5a1.08,1.08,0,0,0-.57.8l-.09-.22a1.13,1.13,0,0,1,.61-.77.88.88,0,0,1,1.23.61,1,1,0,0,1-.45,1.29C241.92,87,241.32,86.6,241,85.67Z"/><path class="cls-2" d="M244.14,83.42a4.93,4.93,0,0,1-.19-.54h0c0,.16-.07.31-.1.48L243.45,85l1.8-.73.07.19-2.06.83,0-.13.61-2.59.18-.08,1.24,3.06-.21.08Z"/><path class="cls-2" d="M245.45,83.67c-.41-1-.3-1.7.28-1.94s1.14.19,1.55,1.21.31,1.73-.27,2S245.86,84.69,245.45,83.67Zm1.62-.64c-.38-.94-.84-1.29-1.27-1.12s-.51.75-.13,1.68.84,1.3,1.27,1.13S247.44,84,247.07,83Z"/><path class="cls-2" d="M247.75,82.75c-.41-1-.31-1.71.27-1.94s1.14.19,1.55,1.2.32,1.73-.27,2S248.16,83.77,247.75,82.75Zm1.61-.65c-.38-.93-.84-1.28-1.26-1.11s-.52.74-.14,1.67.84,1.31,1.27,1.14S249.73,83,249.36,82.1Z"/><line class="cls-3" x1="129.77" y1="0.02" x2="129.77" y2="16.37"/><line class="cls-3" x1="152.48" y1="1.56" x2="149.64" y2="17.67"/><line class="cls-3" x1="174.59" y1="6.98" x2="168.98" y2="22.41"/><line class="cls-3" x1="195.45" y1="16.14" x2="187.2" y2="30.43"/><line class="cls-3" x1="214.43" y1="28.77" x2="203.76" y2="41.49"/><line class="cls-3" x1="231.41" y1="44.97" x2="219.14" y2="55.26"/><line class="cls-3" x1="244.88" y1="63.25" x2="230.91" y2="71.32"/><line class="cls-3" x1="255.04" y1="83.6" x2="239.72" y2="89.17"/><path class="cls-3" d="M126.14,16.26q3-.15,6-.15a116.06,116.06,0,0,1,109.4,77.33"/></g></g></svg>