<svg xmlns="http://www.w3.org/2000/svg" viewBox="0 0 264.24 264.23"><defs><style>.cls-1{fill:#fff;opacity:0.8;}.cls-2{fill:none;opacity:0;}</style></defs><g id="Layer_2" data-name="Layer 2"><g id="ISO"><path class="cls-1" d="M264.24,132.12q0,5.25-.41,10.4l-12,5.26a24,24,0,0,1-.93,5.29,38.6,38.6,0,0,1-3.06,7.71l-4.13,2.06q1.42-5.22,2.38-10.62a116.31,116.31,0,0,0,0-40.2q-.94-5.4-2.38-10.62l4.13,2a38.66,38.66,0,0,1,3.06,7.72,23.89,23.89,0,0,1,.93,5.28l12,5.26Q264.24,126.87,264.24,132.12Z"/><path class="cls-2" d="M250.93,153.07l11.32,2a132.12,132.12,0,1,1,0-45.89l-11.32,2a38.66,38.66,0,0,0-3.06-7.72l-4.13-2a115.74,115.74,0,1,0,0,61.44l4.13-2.06A38.6,38.6,0,0,0,250.93,153.07Z"/></g></g></svg>